<?xml version="1.0" encoding="UTF-8"?>
<svg id="Capa_2" data-name="Capa 2" xmlns="http://www.w3.org/2000/svg" viewBox="0 0 351.32 410.57">
  <defs>
    <style>
      .cls-1 {
        fill: #fa3517;
      }
    </style>
  </defs>
  <g id="Capa_1-2" data-name="Capa 1">
    <g>
      <g>
        <path class="cls-1" d="M339.95,224.64c-.04.12-.12.24-.2.36l.24-.32-.04-.04Z"/>
        <path class="cls-1" d="M323.19,245.99l-18.7,23.77c-.51.59-.99,1.07-1.54,1.51-.16.12-.36.28-.52.4-12.95,9.94-29.19,14.22-47.1,14.22-29.83,0-64.21-11.88-95.58-29.27-12.12-6.69-23.77-14.22-34.54-22.22C70.51,193.9,15.77,123.07,41.43,56.84l.28-.48,18.62-24.6c-.08.24-.12.51-.2.75-11.61,44.8,23.17,111.51,84.53,162.21,45.43,37.47,97.37,59.85,138.92,59.85,14.97,0,28.01-2.89,38.74-8.6h.87Z"/>
        <path class="cls-1" d="M339.95,224.64c-.04.12-.12.24-.2.36l.24-.32-.04-.04Z"/>
        <path class="cls-1" d="M333.33,220.4l-5.15,6.46-.55.59c-2.54,2.57-5.39,4.79-8.48,6.69-9.47,5.78-21.47,8.71-35.69,8.71-38.74,0-87.78-21.43-131.19-57.32C87.07,131.75,53.95,60.33,77.08,22.7c.2-.36.4-.67.55-.95.79-1.19,1.7-2.38,2.73-3.64.59-.75,1.23-1.47,1.94-2.22.48-.48.95-.99,1.62-1.58C93.76,4.95,108.65,0,126.96,0c39.02,0,88.14,21.35,131.39,57.12,65.68,54.27,98.63,125.89,74.98,163.28Z"/>
      </g>
      <g>
        <g>
          <path class="cls-1" d="M14.14,377.22l1.31,1.07.08-.08c-.48-.36-.91-.67-1.39-.99ZM335.79,378.21l.08.08,1.31-1.07c-.44.32-.91.63-1.39.99Z"/>
          <path class="cls-1" d="M309.49,317.49h-.04c-34.07-12.48-84.41-19.37-133.77-19.37-9.51,0-19.01.24-28.44.79h-.04C70.75,302.91,0,323.03,0,354.37c0,6.42,3.01,12.6,8.91,18.38.75.71,1.54,1.47,2.38,2.18l1.55,1.27c.44.32.87.67,1.31,1.03.48.32.91.63,1.39.99,27.77,19.77,89.88,32.36,160.15,32.36s132.34-12.6,160.11-32.36c.48-.36.95-.67,1.39-.99.44-.36.87-.71,1.31-1.03l1.54-1.27,2.38-2.18c5.9-5.78,8.91-11.96,8.91-18.38,0-15.09-16.36-27.53-41.83-36.88ZM175.68,402.18c-65.76,0-125.81-11.61-153.02-29.27,1.35-.87,2.73-1.7,4.24-2.54.67-.4,1.39-.79,2.1-1.15,1.11-.59,2.3-1.19,3.49-1.74,1.03-.51,2.14-1.03,3.25-1.51,1.51-.67,3.09-1.35,4.71-1.98,1.62-.67,3.29-1.31,4.99-1.9,2.73-.99,5.55-1.94,8.52-2.85,1.54-.51,3.17-.99,4.83-1.47,6.58-1.9,13.63-3.6,21.11-5.11,1.58-.36,3.21-.67,4.83-.99,3.64-.71,7.45-1.39,11.29-1.98,1.86-.32,3.72-.59,5.62-.87,9.35-1.39,19.17-2.54,29.31-3.33,2.14-.2,4.28-.36,6.42-.51,2.06-.16,4.12-.28,6.22-.4,6.26-.4,12.64-.63,19.09-.79,1.15-.04,2.3-.04,3.49-.08,3.13-.04,6.3-.08,9.51-.08s6.38.04,9.51.08c1.19.04,2.34.04,3.49.08,6.46.16,12.83.4,19.09.79,2.1.12,4.16.24,6.22.4,2.14.16,4.28.32,6.42.51,10.14.79,19.96,1.94,29.31,3.33,1.9.28,3.76.55,5.63.87,1.82.28,3.64.59,5.47.91,1.82.32,3.6.63,5.39.99,3.53.67,6.97,1.39,10.34,2.14,1.66.36,3.33.75,4.95,1.15,1.39.32,2.77.67,4.16,1.03,1.51.4,2.97.75,4.44,1.19,2.06.55,4.04,1.11,5.98,1.7,2.22.67,4.36,1.39,6.46,2.1,1.31.44,2.57.87,3.84,1.35.95.36,1.86.71,2.77,1.03.87.36,1.7.67,2.54,1.03,1.35.51,2.65,1.11,3.92,1.66.99.44,1.98.87,2.93,1.35,1.07.48,2.06.99,3.05,1.51.24.12.48.24.71.4.79.4,1.58.83,2.34,1.27,1.43.79,2.77,1.58,4.04,2.42-27.21,17.67-87.22,29.27-152.98,29.27Z"/>
        </g>
        <path class="cls-1" d="M8.91,372.74l-.2.16,2.57,2.02c-.83-.71-1.62-1.47-2.38-2.18Z"/>
      </g>
    </g>
  </g>
</svg>